<?xml version="1.0" encoding="utf-8"?>
<!-- Uploaded to: SVG Repo, www.svgrepo.com, Generator: SVG Repo Mixer Tools -->
<svg width="800px" height="800px" viewBox="0 0 1024 1024" class="icon"  version="1.1" xmlns="http://www.w3.org/2000/svg"><path d="M720.7936 453.9392l-2.8416-190.3616a48.8448 48.8448 0 0 0-48.6144-48.9728h-152.9088c-34.0224 0-65.4848 14.848-87.296 40.9344a112.7168 112.7168 0 0 0-87.3472-40.96H188.2368a48.8448 48.8448 0 0 0-48.5888 48.9984v407.3728c0 27.008 21.7856 48.9728 48.5888 48.9728h158.464a117.4016 117.4016 0 0 0 111.6672 29.184c3.7632-1.024 15.7184-53.4528 11.52-50.2784a69.2736 69.2736 0 0 1-20.6592 10.8032V319.8464c0-37.2992 38.0928-65.152 72.1408-65.152h140.416c8.704 0 16.0256 7.424 16.0256 16.1792l2.7136 171.3152 40.2688 11.7504z m-366.4128 223.872H195.7888a16.3328 16.3328 0 0 1-16.0256-16.1792V270.5664c0-8.7808 7.3472-16.2048 16.0256-16.2048h140.416c34.048 0 72.1408 27.8784 72.1408 65.1776v390.2464a71.6032 71.6032 0 0 1-32.768-21.8624c-5.12-6.3232-13.056-10.112-21.1968-10.112z" fill="#ED892D" /><path d="M329.088 473.856H249.3184a19.9424 19.9424 0 0 1 0-39.9104h79.7696a19.9424 19.9424 0 1 1 0 39.8848z m0-99.7376H249.3184a19.9424 19.9424 0 0 1 0-39.8592h79.7696a19.9424 19.9424 0 1 1 0 39.8592z m-79.7696 159.5392h79.7696a19.9424 19.9424 0 1 1 0 39.8848H249.3184a19.9424 19.9424 0 1 1 0-39.8848zM608.256 374.1184h-99.6864a19.9424 19.9424 0 0 1 0-39.8592h99.6864a19.9424 19.9424 0 1 1 0 39.8592z" fill="#F5C280" /><path d="M705.536 463.6672c2.7392 0 5.1968 0.4352 8.2944 1.3568l3.328 1.0752-1.8432-0.2816 4.5056 1.8688-1.3056-0.9728 45.2608 25.472c13.0304 7.0912 19.5072 20.8128 15.5904 33.7152l-1.1008 2.9696-0.4352 1.1008c-1.024 2.816-2.688 9.088-2.688 12.8768 0 19.968 15.4368 36.4544 35.072 38.2208l3.5072 0.1792h1.9712c11.008 0 19.8144 8.064 23.2192 19.5584l0.7936 3.2 0.3584 2.0992v-0.3328l1.4336 8.5504c1.6896 10.624 2.5856 19.0208 2.5856 27.3408 0 8.8832-0.9472 17.7152-2.7392 28.4928l-1.1776 6.7072 0.1536-0.64-0.3584 2.2528c-2.4576 13.2608-10.368 22.2208-21.4016 23.5008l-2.816 0.1792h-1.9968c-19.9936 0-36.48 15.2064-38.3744 34.6368l-0.256 4.608-0.0512 2.7136c0.128 2.7648 0.768 5.7344 1.792 8.704l1.1264 2.9184 0.128 0.7936 0.512 0.64c4.48 10.7008 2.0992 23.4752-5.1712 31.3344l-2.304 2.2016-3.4816 2.4832-46.464 25.5488c-5.4784 2.688-9.6 3.84-14.8992 3.84-8.5504 0-16.8192-3.3792-22.784-9.344-12.8768-12.8256-24.9856-20.0448-32.2048-20.0448a20.1728 20.1728 0 0 0-7.3472 1.6896 63.5648 63.5648 0 0 0-13.7216 8.192l-5.2224 4.1216-6.144 5.1456-1.792 1.8432c-3.584 3.2256-8.2944 5.4784-13.44 6.5792l-3.968 0.6144-3.4048 0.1536c-2.944 0-5.5296-0.512-9.344-1.7152l-3.1232-1.0752L538.2144 793.6c-11.1872-7.552-16.5632-21.76-12.8768-34.0736l0.7936-2.3296 0.5888-1.4848 1.2288-3.84a46.848 46.848 0 0 0 1.3824-6.1952 22.7072 22.7072 0 0 0 0.256-3.1744c0-19.968-15.4368-36.4544-35.072-38.2208l-4.5312-0.1536c-11.008 0-19.8144-8.0896-23.2192-19.584l-0.7936-3.2-0.3584-2.1504 0.0768 0.9728-0.4352-2.8416-1.536-9.4464a220.0832 220.0832 0 0 1-1.664-14.6944 123.3408 123.3408 0 0 1-0.4096-9.4976c0-2.944 0.128-6.144 0.4096-9.5232 0.3584-4.6336 0.9216-9.5232 1.6896-14.6944l1.8176-11.3664 0.0768 0.1536 0.2304-1.7664 0.7168-3.1232c2.816-10.1888 9.1392-17.28 17.664-19.456l2.944-0.5376 2.816-0.1792h1.9968c21.248 0 38.5536-17.2288 38.5536-38.4 0-3.7888-0.9216-7.7568-2.3552-11.6736l-1.792-4.4032c-5.76-12.9024-1.3824-28.9792 9.0112-35.3024l1.408-1.1008 47.4112-25.4464-0.9728 0.7168 2.4832-1.536 0.384-0.128a33.28 33.28 0 0 1 11.1104-2.2272c8.5248 0 16.7936 3.4048 22.784 9.3696 9.5744 9.5488 23.5008 18.0736 31.3344 18.0736 7.7056 0 21.632-8.5248 31.3088-18.048 5.7088-5.7088 14.6944-9.3952 22.8352-9.3952z m-107.776 38.3232l-33.28 18.4064 0.8704 2.688c1.408 4.8384 2.4064 9.8304 2.816 14.848l0.2048 4.992a77.6192 77.6192 0 0 1-62.5664 75.776l-3.2256 0.4864-1.3312 11.6224-0.256 2.5344a89.7792 89.7792 0 0 0-0.256 15.2064l0.768 8.576 1.0496 8.4736 0.0768 0.4608 3.2512 0.512a77.2096 77.2096 0 0 1 37.4784 18.7392l3.8144 3.712c13.6704 14.336 21.248 33.3056 21.248 53.4272 0 6.6048-1.1264 13.312-2.9952 19.8656l-0.8704 2.688 29.7728 16.9216 3.1488-2.9952c1.5872-1.408 3.2256-2.7392 4.9408-4.0448l5.3248-3.7632-0.768 0.4608c15.104-10.6496 29.2864-16.1792 42.3168-16.1792 11.9552 0 24.704 4.3264 38.0672 12.8l4.736 3.1488 4.352 2.5856c2.9184 1.8688 5.7344 3.9424 8.3456 6.144l2.3296 2.0992 31.6928-17.2544-0.768-2.4576a75.5712 75.5712 0 0 1-2.816-14.848l-0.2304-5.0944c0-19.8144 7.5264-38.6304 21.1712-52.9408a77.3632 77.3632 0 0 1 41.7792-22.8864l3.2512-0.512 0.3328-2.5344c0.5632-4.7616 1.024-10.3936 1.2288-15.6928l0.1024-5.1712c0-1.7664-0.0768-3.7376-0.2304-5.9136l-0.512-5.9392-1.408-11.6224-3.2256-0.512a77.2096 77.2096 0 0 1-37.4784-18.688l-3.8144-3.7376a76.928 76.928 0 0 1-21.248-53.4272c0-5.888 1.024-12.3136 3.0208-19.2768l0.9984-3.1744-31.6928-17.6384-2.048 1.792a97.664 97.664 0 0 1-6.8096 5.2992l-3.0976 2.048-0.9472 0.7936c-14.208 9.7792-28.7232 15.232-41.216 15.232-11.4688 0-22.9888-3.7376-36.6848-11.776l-5.9904-3.712a86.1952 86.1952 0 0 1-9.8304-7.7312l-2.8928-2.816z" fill="#BA42D6" /><path d="M651.2384 571.392c18.8928 0 36.8384 7.4496 50.5088 20.992a70.656 70.656 0 0 1 21.0688 50.2784c0 18.9952-7.3728 36.864-20.6848 50.176a70.7584 70.7584 0 0 1-50.8672 21.12c-18.8672 0-36.8384-7.4752-50.5088-20.992a70.656 70.656 0 0 1-21.0688-50.304c0-18.8672 7.5008-36.736 21.0688-50.3296a71.168 71.168 0 0 1 50.4832-20.9664z m0.0256 38.8096c-18.048 0-32.7424 14.6432-32.7424 32.5888s14.6944 32.5888 32.768 32.5888c18.0224 0 32.7424-14.6432 32.7424-32.5632a32.4096 32.4096 0 0 0-32.768-32.6144z" fill="#BA42D6" /></svg>