<?xml version="1.0" ?>
<!-- Uploaded to: SVG Repo, www.svgrepo.com, Generator: SVG Repo Mixer Tools -->
<svg width="800px" height="800px" viewBox="0 0 64 64" id="svg5" version="1.1" xml:space="preserve" xmlns="http://www.w3.org/2000/svg" xmlns:svg="http://www.w3.org/2000/svg">
<defs id="defs2"/>
<g id="layer1" transform="translate(-288,-576)">
<path d="m 297.99999,585 h 49 v 6 h -49 z" id="path61096" style="fill:#3e4f59;fill-opacity:1;fill-rule:evenodd;stroke-width:2;stroke-linecap:round;stroke-linejoin:round;stroke-miterlimit:4.1"/>
<path d="m 297.99999,591 h 49 v 40 h -49 z" id="path61098" style="fill:#acbec2;fill-opacity:1;fill-rule:evenodd;stroke-width:2.00001;stroke-linecap:round;stroke-linejoin:round;stroke-miterlimit:4.1"/>
<path d="m 297.99999,591 v 40 h 29.76953 a 28.484051,41.392605 35.599482 0 0 18.625,-40 z" id="path61100" style="fill:#e8edee;fill-opacity:1;fill-rule:evenodd;stroke:none;stroke-width:2.00002;stroke-linecap:round;stroke-linejoin:round;stroke-miterlimit:4.1"/>
<path d="m 299.99999,584 c -1.64501,0 -3,1.355 -3,3 v 40 c 0,0.55229 0.44772,1 1,1 0.55229,0 1,-0.44771 1,-1 v -40 c 0,-0.56413 0.43587,-1 1,-1 h 45 c 0.56413,0 1,0.43587 1,1 v 3 h -42 c -0.55228,0 -1,0.44772 -1,1 0,0.55229 0.44772,1 1,1 h 42 v 37 c 0,0.56413 -0.43587,1 -1,1 h -49 c -0.55228,0 -1,0.44772 -1,1 0,0.55229 0.44772,1 1,1 h 49 c 1.64501,0 3,-1.35499 3,-3 0,-14 0,-28 0,-42 0,-1.645 -1.35499,-3 -3,-3 z" id="path61102" style="color:#000000;fill:#000000;fill-rule:evenodd;stroke-linecap:round;stroke-linejoin:round;stroke-miterlimit:4.1"/>
<path d="m 342.99999,587 c -0.55228,0 -1,0.44772 -1,1 0,0.55229 0.44772,1 1,1 0.55229,0 1,-0.44771 1,-1 0,-0.55228 -0.44771,-1 -1,-1 z" id="path61104" style="color:#000000;fill:#ed7161;fill-opacity:1;fill-rule:evenodd;stroke-linecap:round;stroke-linejoin:round;stroke-miterlimit:4.1;-inkscape-stroke:none"/>
<path d="m 338.99999,587 c -0.55228,0 -1,0.44772 -1,1 0,0.55229 0.44772,1 1,1 0.55229,0 1,-0.44771 1,-1 0,-0.55228 -0.44771,-1 -1,-1 z" id="path61106" style="color:#000000;fill:#ecba16;fill-opacity:1;fill-rule:evenodd;stroke-linecap:round;stroke-linejoin:round;stroke-miterlimit:4.1;-inkscape-stroke:none"/>
<path d="m 334.99999,587 c -0.55228,0 -1,0.44772 -1,1 0,0.55229 0.44772,1 1,1 0.55229,0 1,-0.44771 1,-1 0,-0.55228 -0.44771,-1 -1,-1 z" id="path61108" style="color:#000000;fill:#42b05c;fill-opacity:1;fill-rule:evenodd;stroke-linecap:round;stroke-linejoin:round;stroke-miterlimit:4.1;-inkscape-stroke:none"/>
<path d="m 292.99999,630 a 1,1 0 0 0 -1,1 1,1 0 0 0 1,1 1,1 0 0 0 1,-1 1,1 0 0 0 -1,-1 z" id="path61110" style="color:#000000;fill:#000000;fill-rule:evenodd;stroke-linecap:round;stroke-linejoin:round;stroke-miterlimit:4.1;-inkscape-stroke:none"/>
<path d="m 300.99999,590 c -0.55228,0 -1,0.44772 -1,1 0,0.55229 0.44772,1 1,1 0.55229,0 1,-0.44771 1,-1 0,-0.55228 -0.44771,-1 -1,-1 z" id="path61112" style="color:#000000;fill:#000000;fill-rule:evenodd;stroke-linecap:round;stroke-linejoin:round;stroke-miterlimit:4.1;-inkscape-stroke:none"/>
<path d="m 314.56992,611.00002 c 0,-4.39022 3.56425,-7.94923 7.96097,-7.94923 4.39674,0 7.96098,3.55901 7.96098,7.94923 0,4.39025 -3.56424,7.94925 -7.96098,7.94925 -4.39672,0 -7.96097,-3.559 -7.96097,-7.94925 z" id="path15077" style="fill:#ffa221;fill-opacity:1;fill-rule:evenodd;stroke:none;stroke-width:2;stroke-linecap:round;stroke-linejoin:round;stroke-miterlimit:4.1;stroke-opacity:1"/>
<path d="m 317.07812,605.20898 c -1.54363,1.44987 -2.50781,3.50794 -2.50781,5.79101 0,4.39026 3.56422,7.94923 7.96094,7.94923 3.20501,0 5.96636,-1.89146 7.22851,-4.61719 a 16.592953,12.931248 31.951506 0 0 -6.5625,-6.55664 16.592953,12.931248 31.951506 0 0 -6.11914,-2.56641 z" id="path50018" style="fill:#ffc343;fill-opacity:1;fill-rule:evenodd;stroke:none;stroke-width:2;stroke-linecap:round;stroke-linejoin:round;stroke-miterlimit:4.1"/>
<g id="g15085" style="fill:none;fill-opacity:1;stroke:#000000;stroke-width:1.21886;stroke-opacity:1" transform="matrix(-0.82560048,0,0,-0.81530382,371.71359,710.82457)">
<path d="m 59.571598,130.17382 a 1.218855,1.218855 0 0 0 1.218337,-1.21935 v -1.07322 c 1.334996,-0.48367 2.318384,-1.73454 2.318388,-3.22206 0,-1.91315 -1.626369,-3.44005 -3.536725,-3.44005 -0.6482,0 -1.097686,-0.4633 -1.097686,-1.00135 0,-0.53803 0.44948,-0.99896 1.097686,-0.99896 0.648201,0 1.097686,0.46093 1.097686,0.99896 a 1.218855,1.218855 0 0 0 1.218337,1.21935 1.218855,1.218855 0 0 0 1.220702,-1.21935 c 0,-1.48752 -0.983394,-2.73838 -2.318388,-3.22205 v -1.07322 a 1.218855,1.218855 0 0 0 -1.218337,-1.21935 1.218855,1.218855 0 0 0 -1.218337,1.21935 v 1.07322 c -1.334059,0.48415 -2.316022,1.73521 -2.316022,3.22205 0,1.91317 1.624001,3.44005 3.534359,3.44005 0.648196,0 1.097686,0.46334 1.097686,1.00135 -10e-7,0.53804 -0.449503,0.99896 -1.097686,0.99896 -0.648189,0 -1.097685,-0.46092 -1.097686,-0.99896 a 1.218855,1.218855 0 0 0 -1.218336,-1.21935 1.218855,1.218855 0 0 0 -1.218337,1.21935 c 2e-6,1.48684 0.981961,2.73791 2.316022,3.22206 v 1.07322 a 1.218855,1.218855 0 0 0 1.218337,1.21935 z" id="path15079" style="color:#000000;fill:#000000;fill-rule:evenodd;stroke:none;stroke-linecap:round;stroke-linejoin:round;stroke-miterlimit:4.1"/>
</g>
<path d="m 322.63867,595.58398 c -0.59775,-0.004 -1.19364,0.0268 -1.78515,0.0918 -3.15473,0.3464 -6.17711,1.65739 -8.59766,3.81055 a 1,1 0 0 0 -0.082,1.41211 1,1 0 0 0 1.41211,0.082 c 4.20941,-3.74441 10.5063,-4.57183 15.66601,-1.5957 0.85436,0.49279 1.63208,1.06368 2.33203,1.69921 a 1,1 0 0 0 1.41211,-0.0684 1,1 0 0 0 -0.0664,-1.4121 c -0.8048,-0.73074 -1.70121,-1.38679 -2.67969,-1.95118 -2.40068,-1.38471 -5.02107,-2.05231 -7.61133,-2.06836 z m 12.69141,7.89454 a 1,1 0 0 0 -0.375,0.10546 1,1 0 0 0 -0.43946,1.34375 c 1.84387,3.63202 2.00423,8.02725 0.12891,11.91016 l -0.44726,-2.93555 a 1,1 0 0 0 -1.13868,-0.83789 1,1 0 0 0 -0.83789,1.13867 l 0.86914,5.70899 a 1.0001,1.0001 0 0 0 1.35352,0.78125 l 5.38476,-2.10156 a 1,1 0 0 0 0.56641,-1.29492 1,1 0 0 0 -1.29492,-0.56836 l -2.6875,1.04882 c 2.18493,-4.46825 2.01589,-9.5599 -0.11328,-13.7539 a 1,1 0 0 0 -0.58203,-0.49805 1,1 0 0 0 -0.38672,-0.0469 z" id="path15875" style="color:#000000;fill:#000000;fill-rule:evenodd;stroke-linecap:round;stroke-linejoin:round;stroke-miterlimit:4.1;-inkscape-stroke:none"/>
<path d="m 310.84766,601.24023 a 1.0001,1.0001 0 0 0 -0.29102,0.0664 l -5.38476,2.10156 a 1,1 0 0 0 -0.56641,1.29492 1,1 0 0 0 1.29492,0.56836 l 2.6875,-1.04882 c -2.63514,5.38943 -1.84503,11.68349 1.67773,16.22265 a 1,1 0 0 0 1.40235,0.17774 1,1 0 0 0 0.17773,-1.40235 c -3.05074,-3.93094 -3.75531,-9.37161 -1.49023,-14.06054 l 0.44726,2.9375 a 1,1 0 0 0 1.13868,0.83789 1,1 0 0 0 0.83789,-1.13867 l -0.86914,-5.70899 a 1.0001,1.0001 0 0 0 -1.0625,-0.84766 z m 21.02929,19.54688 a 1,1 0 0 0 -0.46289,0.23242 c -4.20941,3.74441 -10.50632,4.57183 -15.66601,1.5957 a 1,1 0 0 0 -1.36524,0.36719 1,1 0 0 0 0.36719,1.36524 c 5.90934,3.40851 13.15304,2.47233 17.99414,-1.83399 a 1,1 0 0 0 0.082,-1.41211 1,1 0 0 0 -0.94922,-0.31445 z" id="path16654" style="color:#000000;fill:#000000;fill-rule:evenodd;stroke-linecap:round;stroke-linejoin:round;stroke-miterlimit:4.1"/>
<path d="m 322.53125,602.05078 c -4.93636,0 -8.96094,4.01776 -8.96094,8.94922 0,4.93148 4.02458,8.94922 8.96094,8.94922 4.93638,0 8.96094,-4.01774 8.96094,-8.94922 0,-1.54558 -0.39407,-3.00631 -1.08789,-4.27734 a 1,1 0 0 0 -1.35743,-0.39844 1,1 0 0 0 -0.39843,1.35547 c 0.5384,0.98632 0.84375,2.11399 0.84375,3.32031 0,3.84901 -3.10385,6.94922 -6.96094,6.94922 -3.85707,0 -6.96094,-3.10021 -6.96094,-6.94922 0,-3.84898 3.10387,-6.94922 6.96094,-6.94922 1.3462,0 2.59524,0.37836 3.6582,1.03516 a 1,1 0 0 0 1.375,-0.32422 1,1 0 0 0 -0.32422,-1.37695 c -1.36819,-0.8454 -2.9861,-1.33399 -4.70898,-1.33399 z" id="path16827" style="color:#000000;fill:#000000;fill-rule:evenodd;stroke-linecap:round;stroke-linejoin:round;stroke-miterlimit:4.1;-inkscape-stroke:none"/>
</g>
</svg>